<svg width="418" height="418" viewBox="0 0 418 418" fill="none" xmlns="http://www.w3.org/2000/svg">
<rect width="418" height="418" rx="209" fill="#121212"/>
<path fill-rule="evenodd" clip-rule="evenodd" d="M151.606 31.8363C172.404 11.0382 200.822 10.0154 225.848 10.0154C226.043 10.0154 226.236 10.024 226.426 10.0408C226.617 10.024 226.809 10.0154 227.004 10.0154C228.868 10.0154 231.729 10.1965 234.527 10.6562C235.932 10.8872 237.457 11.21 238.897 11.6688C240.223 12.0908 241.981 12.7814 243.498 13.9851C243.53 14.0031 243.686 14.0879 244.055 14.212C244.639 14.4088 245.317 14.5684 246.442 14.8332L246.444 14.8337C246.518 14.8512 246.595 14.8692 246.675 14.8879C248.552 15.3268 251.951 16.1215 254.773 18.3786C255.623 19.0591 256.584 19.5906 258.061 20.4071C258.529 20.666 259.049 20.9535 259.633 21.2835C261.613 22.4006 264.404 24.0609 266.575 26.6672C266.626 26.6896 266.695 26.7178 266.785 26.7506C267.36 26.9596 268.168 27.1392 269.53 27.3863C269.677 27.4129 269.833 27.4407 269.997 27.4699C271.135 27.673 272.654 27.9439 274.073 28.3439C275.724 28.8093 277.865 29.605 279.763 31.2036C280.876 32.1407 282.066 32.9357 283.448 33.7947C283.748 33.9814 284.076 34.182 284.423 34.3937C285.531 35.0712 286.826 35.8635 288 36.6812C291.457 39.091 294.854 42.3589 296.963 48.0526C297.514 49.5398 298.016 50.7064 298.576 52.0065C299.035 53.0724 299.532 54.228 300.127 55.7234C301.252 58.5527 302.382 61.867 302.789 65.526C303.298 70.1063 302.37 74.7251 301.297 78.5795C300.609 81.0499 299.685 83.7513 298.902 86.0387C298.516 87.1658 298.165 88.1924 297.893 89.0414C297.797 89.3428 297.699 89.6495 297.6 89.9611C294.999 98.1057 291.323 109.618 285.076 117.65C282.495 120.968 279.239 123.467 276.207 125.448C274.176 126.775 271.912 128.07 269.936 129.2C269.081 129.689 268.28 130.147 267.575 130.563C255.104 137.932 243.421 139.819 229.896 139.819C215.507 139.819 200.49 139.243 185.766 132.933C185.154 132.671 184.533 132.406 183.903 132.138C174.935 128.318 164.361 123.814 156.232 115.685C154.523 113.977 152.761 112.384 150.882 110.687C150.378 110.232 149.866 109.769 149.344 109.294C146.96 107.126 144.427 104.754 142.159 102.12C137.479 96.6879 133.769 89.9526 133.769 80.6997C133.769 63.4884 137.858 45.5845 151.606 31.8363ZM226.426 22.9901C226.236 23.0069 226.043 23.0154 225.848 23.0154C200.331 23.0154 177.344 24.4839 160.799 41.0287C150.393 51.4339 146.769 65.401 146.769 80.6997C146.769 85.9772 148.718 89.8163 152.008 93.636C153.724 95.6283 155.754 97.5517 158.091 99.6772C158.539 100.085 159.001 100.502 159.474 100.929C161.382 102.652 163.459 104.527 165.425 106.493C171.711 112.779 180.092 116.365 189.626 120.444C190.044 120.623 190.465 120.803 190.887 120.984C202.974 126.164 215.646 126.819 229.896 126.819C241.965 126.819 251.129 125.181 260.962 119.371C262.006 118.754 262.988 118.194 263.934 117.653C265.723 116.632 267.384 115.684 269.096 114.565C271.59 112.936 273.499 111.36 274.814 109.669C279.585 103.535 282.668 93.9657 285.512 85.0793C285.952 83.7042 286.388 82.4363 286.814 81.1995C287.506 79.1902 288.169 77.2632 288.774 75.092C289.704 71.7511 290.101 69.0521 289.868 66.9616C289.652 65.0136 289.015 62.9618 288.047 60.5263C287.75 59.7803 287.335 58.8029 286.884 57.7406C286.16 56.0329 285.342 54.1058 284.772 52.5677C283.834 50.0354 282.523 48.7103 280.567 47.3466C279.739 46.7695 278.928 46.2734 277.926 45.6607C277.516 45.4096 277.073 45.1391 276.585 44.8353C275.035 43.8719 273.239 42.7005 271.426 41.1782C271.393 41.1604 271.16 41.0292 270.547 40.8566C269.785 40.6419 268.951 40.4916 267.74 40.2733C267.571 40.2428 267.395 40.211 267.21 40.1775C265.9 39.94 264.082 39.6003 262.343 38.9681C260.564 38.3213 258.351 37.1919 256.623 35.0319C256.123 34.4066 255.192 33.7046 253.243 32.6045C252.969 32.4495 252.655 32.2773 252.311 32.0892C250.706 31.2087 248.464 29.9796 246.652 28.5299C246.362 28.298 245.743 28.0242 243.464 27.4876C243.342 27.4589 243.207 27.4282 243.061 27.3948C241.366 27.0081 238.143 26.2728 235.566 24.2848C235.496 24.2526 235.306 24.1684 234.953 24.0559C234.307 23.8502 233.442 23.6523 232.419 23.4842C230.359 23.1457 228.205 23.0154 227.004 23.0154C226.809 23.0154 226.617 23.0069 226.426 22.9901Z" fill="white"/>
<path fill-rule="evenodd" clip-rule="evenodd" d="M186.967 48.8967C186.967 45.3068 189.877 42.3967 193.467 42.3967H213.127C216.717 42.3967 219.627 45.3068 219.627 48.8967C219.627 52.4865 216.717 55.3967 213.127 55.3967H193.467C189.877 55.3967 186.967 52.4865 186.967 48.8967Z" fill="white"/>
<path fill-rule="evenodd" clip-rule="evenodd" d="M229.782 52.9443C229.765 53.1348 229.756 53.3277 229.756 53.5226C229.756 57.1124 232.666 60.0226 236.256 60.0226C236.629 60.0226 236.994 60.0221 237.351 60.0217C238.917 60.0199 240.333 60.0183 241.652 60.0528C242.125 60.7366 242.668 61.3917 243.288 62.0035C245.619 64.3014 248.665 65.6048 252.086 65.7949C253.056 65.8488 254.292 65.8306 255.563 65.4896C256.825 65.1511 258.848 64.2814 260.14 62.0939C261.469 59.8434 261.206 57.5986 260.818 56.2875C260.443 55.0196 259.809 54.0483 259.361 53.4489C258.44 52.2157 257.276 51.201 256.3 50.4873C255.405 49.8323 254.008 48.9433 252.434 48.4934C251.717 48.2885 251.002 48.1119 250.291 47.9595C249.293 46.6384 247.918 45.6113 246.217 45.033C243.866 44.2336 241.597 44.562 240.409 44.7825C239.328 44.9832 238.168 45.3077 237.405 45.5211C237.258 45.5624 237.125 45.5995 237.011 45.6308C236.343 45.8133 236.081 45.8599 236.06 45.869C232.561 45.9724 229.756 48.8417 229.756 52.3661C229.756 52.5609 229.765 52.7538 229.782 52.9443ZM252.877 52.8178C252.899 52.817 252.91 52.8173 252.91 52.8176C252.911 52.8179 252.9 52.8183 252.877 52.8178Z" fill="white"/>
<path fill-rule="evenodd" clip-rule="evenodd" d="M203.324 87.0156C202.697 83.6637 199.559 81.3384 196.13 81.767C192.568 82.2123 190.041 85.4609 190.486 89.023C190.769 91.2848 191.898 93.3352 192.686 94.6199C193.604 96.116 194.74 97.6354 195.873 99.0159C198.091 101.72 200.768 104.464 202.706 106.014C205.951 108.61 209.281 109.526 212.428 109.781C213.891 109.899 215.317 109.875 216.543 109.84C216.898 109.829 217.234 109.818 217.559 109.807C218.443 109.778 219.246 109.751 220.13 109.751C220.284 109.751 220.439 109.751 220.597 109.751C225.27 109.754 231.628 109.757 236.793 107.644C239.707 106.451 242.524 104.498 244.54 101.365C246.531 98.2702 247.382 94.5843 247.382 90.5297C247.382 86.9399 244.472 84.0297 240.882 84.0297C237.292 84.0297 234.382 86.9399 234.382 90.5297C234.382 92.7918 233.914 93.8544 233.608 94.3295C233.327 94.7657 232.869 95.2032 231.87 95.612C229.383 96.6296 225.621 96.751 220.13 96.751C219.008 96.751 217.897 96.7882 216.962 96.8194C216.678 96.8289 216.41 96.8379 216.164 96.8451C215.012 96.8787 214.185 96.8804 213.478 96.8231C212.286 96.7266 211.606 96.4857 210.827 95.8624C209.823 95.0597 207.785 93.0404 205.924 90.771C205.016 89.6646 204.272 88.6445 203.768 87.8234C203.494 87.3769 203.37 87.1152 203.324 87.0156Z" fill="white"/>
<path fill-rule="evenodd" clip-rule="evenodd" d="M210.814 127.976C214.403 127.976 217.314 130.886 217.314 134.476C217.314 156.567 213.625 178.797 210.067 200.241C208.936 207.06 207.817 213.799 206.835 220.429C206.787 220.754 206.739 221.079 206.691 221.406C205.723 227.958 204.707 234.839 202.487 241.814C201.686 244.333 201.241 246.994 200.703 250.215C200.659 250.479 200.615 250.746 200.569 251.017C200.001 254.405 199.295 258.395 197.799 262.286C196.73 265.066 195.987 269.408 195.37 273.401C195.369 273.426 195.368 273.455 195.368 273.487C195.364 273.745 195.363 274.08 195.362 274.528L195.362 274.571C195.36 275.429 195.357 276.631 195.302 277.731C195.274 278.282 195.228 278.92 195.142 279.545C195.079 279.995 194.915 281.12 194.383 282.253C194.14 282.77 193.437 284.144 191.859 285.154C189.776 286.488 187.332 286.475 185.407 285.571C183.934 284.879 183.09 283.833 182.761 283.398C182.354 282.858 182.064 282.33 181.87 281.942C180.766 279.733 181.037 277.197 182.359 275.306C182.36 275.052 182.361 274.793 182.362 274.532L182.362 274.447C182.363 274.049 182.364 273.626 182.37 273.268L182.37 273.234C182.374 272.979 182.385 272.306 182.48 271.686C183.05 267.981 183.973 262.02 185.665 257.62C186.637 255.093 187.173 252.294 187.748 248.865C187.799 248.567 187.849 248.262 187.901 247.952C188.406 244.905 189 241.328 190.099 237.872C191.992 231.923 192.871 225.983 193.88 219.167C193.912 218.953 193.944 218.739 193.976 218.524C195.033 211.389 196.203 204.328 197.365 197.317C200.877 176.126 204.314 155.394 204.314 134.476C204.314 130.886 207.224 127.976 210.814 127.976ZM182.265 277.759C182.251 277.862 182.246 277.846 182.267 277.746C182.266 277.75 182.265 277.755 182.265 277.759ZM193.492 276.116C193.495 276.122 193.497 276.126 193.498 276.128C193.496 276.124 193.494 276.12 193.492 276.116Z" fill="white"/>
<path fill-rule="evenodd" clip-rule="evenodd" d="M97.7368 159.534C101.142 158.399 104.824 160.239 105.959 163.645C108.681 171.812 115.085 177.991 122.766 185.268C132.532 194.52 144.748 198.529 158.472 200.132C168.718 201.329 179.189 201.15 189.819 200.967C193.713 200.901 197.628 200.834 201.562 200.834C205.152 200.834 208.062 203.744 208.062 207.334C208.062 210.923 205.152 213.834 201.562 213.834C198.118 213.834 194.512 213.896 190.801 213.96C179.922 214.148 168.149 214.351 156.963 213.044C141.687 211.26 126.377 206.596 113.826 194.705C113.612 194.503 113.396 194.299 113.179 194.093C106.113 187.406 97.4404 179.2 93.6258 167.756C92.4906 164.35 94.3312 160.669 97.7368 159.534Z" fill="white"/>
<path fill-rule="evenodd" clip-rule="evenodd" d="M298.286 213.221C291.89 214.073 285.003 214.99 277.953 214.99H206.188C202.598 214.99 199.688 212.08 199.688 208.49C199.688 204.9 202.598 201.99 206.188 201.99H277.953C284.063 201.99 290.159 201.189 296.743 200.312L296.952 200.284C303.336 199.434 310.198 198.521 317.209 198.521C320.799 198.521 323.709 201.431 323.709 205.021C323.709 208.61 320.799 211.521 317.209 211.521C311.127 211.521 305.046 212.322 298.459 213.198L298.286 213.221Z" fill="white"/>
<path fill-rule="evenodd" clip-rule="evenodd" d="M191.124 279.065C193.662 281.603 193.662 285.719 191.124 288.257C188.15 291.231 185.632 294.705 182.862 298.527C181.635 300.22 180.359 301.981 178.972 303.797C176.847 306.578 174.717 309.268 172.621 311.916C167.555 318.312 162.686 324.46 158.566 331.052C152.196 341.244 146.283 351.444 140.425 361.988C139.1 364.374 137.406 366.979 135.828 369.405C135.15 370.447 134.493 371.456 133.897 372.401C131.736 375.822 130.033 378.868 129.088 381.704C127.953 385.109 124.272 386.95 120.866 385.815C117.461 384.679 115.62 380.998 116.755 377.593C118.225 373.184 120.649 369.031 122.905 365.46C123.73 364.153 124.512 362.953 125.25 361.819C126.686 359.614 127.958 357.662 129.061 355.675C134.994 344.997 141.022 334.594 147.542 324.162C152.07 316.917 157.648 309.873 162.887 303.257C164.879 300.741 166.823 298.286 168.641 295.906C169.584 294.671 170.602 293.268 171.682 291.778C174.688 287.633 178.183 282.813 181.932 279.065C184.47 276.526 188.586 276.526 191.124 279.065Z" fill="white"/>
<path fill-rule="evenodd" clip-rule="evenodd" d="M191.154 273.691C194.743 273.691 197.654 276.602 197.654 280.191V313.151C197.654 317.405 197.448 321.999 197.248 326.471C197.135 328.984 197.024 331.457 196.953 333.811C196.745 340.641 196.828 347.038 197.818 352.858C198.06 354.276 198.11 356.092 198.145 357.474C198.153 357.757 198.159 358.039 198.166 358.32C198.198 359.625 198.229 360.902 198.307 362.169C198.403 363.729 198.554 364.924 198.756 365.738C198.779 365.832 198.801 365.913 198.821 365.981C199.391 366.587 199.734 367.167 199.913 367.495C200.197 368.015 200.385 368.5 200.507 368.85C200.749 369.55 200.915 370.269 201.034 370.867C201.278 372.094 201.475 373.587 201.642 375.117C201.963 378.04 202.241 381.713 202.506 385.215L202.551 385.811C202.837 389.583 203.108 393.073 203.41 395.562C203.485 396.177 203.554 396.663 203.613 397.033C203.718 397.202 203.816 397.377 203.906 397.558C205.512 400.769 204.21 404.673 200.999 406.278C199.002 407.277 196.677 407.204 194.767 406.14C193.284 405.315 192.514 404.153 192.221 403.672C191.594 402.643 191.308 401.588 191.186 401.115C190.883 399.945 190.671 398.495 190.505 397.128C190.16 394.286 189.867 390.472 189.588 386.794L189.551 386.3C189.278 382.703 189.015 379.23 188.72 376.532C188.591 375.359 188.468 374.446 188.356 373.792C187.038 372.054 186.445 370.112 186.135 368.857C185.652 366.902 185.444 364.786 185.332 362.969C185.237 361.435 185.199 359.866 185.168 358.558C185.162 358.298 185.156 358.048 185.15 357.811C185.107 356.16 185.056 355.355 185.003 355.039C183.789 347.911 183.744 340.468 183.959 333.415C184.043 330.633 184.164 327.978 184.28 325.401C184.472 321.181 184.654 317.17 184.654 313.151V280.191C184.654 276.602 187.564 273.691 191.154 273.691ZM203.772 397.861C203.771 397.858 203.77 397.855 203.769 397.852C203.799 397.942 203.796 397.956 203.772 397.861ZM198.931 366.293C198.93 366.294 198.92 366.274 198.902 366.227C198.923 366.268 198.932 366.291 198.931 366.293Z" fill="white"/>
<path fill-rule="evenodd" clip-rule="evenodd" d="M188.841 276.004C192.43 276.004 195.341 278.914 195.341 282.504V283.661C195.341 287.251 192.43 290.161 188.841 290.161C185.251 290.161 182.341 287.251 182.341 283.661V282.504C182.341 278.914 185.251 276.004 188.841 276.004Z" fill="white"/>
</svg>
