<svg width="65" height="48" viewBox="0 0 65 48" fill="none" xmlns="http://www.w3.org/2000/svg">
<path d="M62.9173 27.5781H57.2619L53.9338 46.75H49.6369L52.9651 27.5781H47.2487L47.8737 24H63.5579L62.9173 27.5781Z" fill="#F3D500"/>
<path d="M45.0299 44.1092C44.0299 45.203 42.7851 45.9738 41.2955 46.4217C39.8163 46.8697 38.3892 47.0832 37.0142 47.0624C36.0767 47.0415 35.2434 46.8905 34.5142 46.6092C33.7955 46.3176 33.1757 45.9322 32.6549 45.453C32.1236 44.9738 31.6809 44.4113 31.3267 43.7655C30.983 43.1197 30.7226 42.427 30.5455 41.6874C30.358 40.9478 30.2486 40.177 30.2174 39.3749C30.1861 38.5624 30.2226 37.7499 30.3267 36.9374L30.7799 33.8436C30.9049 33.0103 31.0976 32.177 31.358 31.3436C31.6184 30.5103 31.9465 29.7134 32.3424 28.953C32.7278 28.203 33.1861 27.5051 33.7174 26.8592C34.2486 26.203 34.8476 25.6353 35.5142 25.1561C36.1809 24.6874 36.9153 24.3228 37.7174 24.0624C38.5299 23.802 39.4101 23.677 40.358 23.6874C41.4726 23.7082 42.4465 23.8853 43.2799 24.2186C44.1236 24.552 44.8319 25.0207 45.4049 25.6249C45.9674 26.2395 46.3997 26.9842 46.7017 27.8592C47.0142 28.7238 47.1965 29.6926 47.2486 30.7655H43.0924C43.0715 30.2655 43.009 29.802 42.9049 29.3749C42.8007 28.9478 42.634 28.578 42.4049 28.2655C42.1757 27.953 41.8736 27.7082 41.4986 27.5311C41.134 27.3436 40.6757 27.2395 40.1236 27.2186C39.5715 27.1978 39.0715 27.2863 38.6236 27.4842C38.1861 27.6822 37.7903 27.953 37.4361 28.2967C37.0819 28.6405 36.7747 29.0415 36.5142 29.4999C36.2538 29.9478 36.0299 30.4165 35.8424 30.9061C35.6444 31.4061 35.483 31.9061 35.358 32.4061C35.2434 32.9061 35.1549 33.3749 35.0924 33.8124L34.6392 36.953C34.5872 37.3488 34.5403 37.7811 34.4986 38.2499C34.4674 38.7186 34.4674 39.1926 34.4986 39.6717C34.5194 40.1613 34.5819 40.6301 34.6861 41.078C34.7903 41.5259 34.9569 41.927 35.1861 42.2811C35.4049 42.6457 35.6965 42.9374 36.0611 43.1561C36.4361 43.3749 36.8997 43.4947 37.4517 43.5155C38.0351 43.5363 38.6236 43.4738 39.2174 43.328C39.8111 43.1717 40.3424 42.9113 40.8111 42.5467L41.608 38.4061H37.9361L38.5142 35.1249H46.4361L45.0299 44.1092Z" fill="#F3D500"/>
<path d="M29.5568 37.0314C29.4214 37.8751 29.2234 38.7137 28.963 39.547C28.7026 40.3803 28.3745 41.172 27.9787 41.922C27.5724 42.672 27.0984 43.3699 26.5568 44.0157C26.0255 44.6512 25.4214 45.198 24.7443 45.6564C24.0672 46.1147 23.3224 46.4689 22.5099 46.7189C21.6974 46.9689 20.812 47.0835 19.8537 47.0626C18.9474 47.0418 18.1401 46.8907 17.4318 46.6095C16.7339 46.3178 16.1297 45.9272 15.6193 45.4376C15.0984 44.9585 14.6714 44.4012 14.338 43.7657C14.0047 43.1199 13.7495 42.4272 13.5724 41.6876C13.3953 40.9585 13.2912 40.198 13.2599 39.4064C13.2287 38.6147 13.2651 37.8282 13.3693 37.047L13.8849 33.7345C14.0099 32.9012 14.1974 32.073 14.4474 31.2501C14.7078 30.4168 15.0307 29.6251 15.4162 28.8751C15.7912 28.1251 16.2391 27.4272 16.7599 26.7814C17.2807 26.1355 17.8693 25.5782 18.5255 25.1095C19.1818 24.6512 19.9109 24.297 20.713 24.047C21.5151 23.7866 22.3901 23.6668 23.338 23.6876C24.2547 23.7085 25.0672 23.8595 25.7755 24.1407C26.4943 24.422 27.1245 24.8022 27.6662 25.2814C28.1974 25.771 28.6401 26.3387 28.9943 26.9845C29.3484 27.6199 29.6245 28.3022 29.8224 29.0314C30.0099 29.771 30.1245 30.5418 30.1662 31.3439C30.2078 32.146 30.1766 32.9428 30.0724 33.7345L29.5568 37.0314ZM25.7287 33.6876C25.7807 33.3022 25.8224 32.8803 25.8537 32.422C25.8849 31.9637 25.8901 31.5001 25.8693 31.0314C25.838 30.573 25.7703 30.1251 25.6662 29.6876C25.562 29.2501 25.4005 28.8595 25.1818 28.5157C24.963 28.172 24.6766 27.8907 24.3224 27.672C23.9682 27.4532 23.5255 27.3335 22.9943 27.3126C22.4214 27.2918 21.9162 27.3751 21.4787 27.5626C21.0412 27.7397 20.6609 27.9897 20.338 28.3126C20.0047 28.646 19.7182 29.0314 19.4787 29.4689C19.2391 29.896 19.0412 30.3491 18.8849 30.8282C18.7182 31.3074 18.5828 31.797 18.4787 32.297C18.3745 32.7866 18.2912 33.2553 18.2287 33.7032L17.713 37.0626C17.6609 37.4272 17.6141 37.8335 17.5724 38.2814C17.5412 38.7293 17.5307 39.1876 17.5412 39.6564C17.5412 40.1251 17.5828 40.5835 17.6662 41.0314C17.7495 41.4793 17.8901 41.8803 18.088 42.2345C18.2859 42.5887 18.5516 42.8803 18.8849 43.1095C19.2287 43.3282 19.6662 43.448 20.1974 43.4689C20.7599 43.4897 21.2651 43.4116 21.713 43.2345C22.1609 43.047 22.562 42.7918 22.9162 42.4689C23.2599 42.146 23.562 41.7657 23.8224 41.3282C24.0828 40.8907 24.3068 40.4272 24.4943 39.9376C24.6714 39.4585 24.8172 38.9689 24.9318 38.4689C25.0464 37.9689 25.1401 37.4949 25.213 37.047L25.7287 33.6876Z" fill="#F3D500"/>
<path d="M2.20989 46.75L0 24H4.12633L5.14739 39.2031L5.25677 40.3438L5.66302 39.3438L11.9755 24H16.8193L6.56927 46.75H2.20989Z" fill="#F3D500"/>
<path d="M53.1755 19.2031H64.4506L63.8256 22.75H48.2693L52.2068 0H56.5193L53.1755 19.2031Z" fill="#BBC1EF"/>
<path d="M49.2075 0L46.6607 15.0625C46.4836 16.2396 46.1659 17.3229 45.7075 18.3125C45.2492 19.3021 44.6554 20.151 43.9263 20.8594C43.1971 21.5781 42.3325 22.1354 41.3325 22.5312C40.3429 22.9167 39.2284 23.0938 37.9888 23.0625C36.8429 23.0417 35.8534 22.8177 35.02 22.3906C34.1971 21.9531 33.5304 21.3698 33.02 20.6406C32.5096 19.9219 32.1554 19.0833 31.9575 18.125C31.7596 17.1667 31.7232 16.1562 31.8482 15.0938L34.4263 0H38.7075L36.1763 15.0938C36.1242 15.5417 36.0982 16.0208 36.0982 16.5312C36.1086 17.0312 36.1867 17.5 36.3325 17.9375C36.4679 18.375 36.6919 18.7448 37.0044 19.0469C37.3273 19.3385 37.7804 19.5 38.3638 19.5312C39.0096 19.5625 39.5669 19.4531 40.0357 19.2031C40.5044 18.9427 40.9002 18.599 41.2232 18.1719C41.5357 17.7448 41.7857 17.2604 41.9732 16.7188C42.1607 16.1771 42.2961 15.6354 42.3794 15.0938L44.9575 0H49.2075Z" fill="#BBC1EF"/>
<path d="M25.7662 18H19.1568L17.0318 22.75H12.3912L23.563 0H27.4537L30.6099 22.75H26.2193L25.7662 18ZM20.8599 14.2656H25.4068L24.6099 5.9375L20.8599 14.2656Z" fill="#BBC1EF"/>
<path d="M5.73438 14.4062L4.28125 22.75H0L3.9375 0L11.2656 0.015625C12.3177 0.046875 13.2812 0.234375 14.1562 0.578125C15.0312 0.921875 15.7812 1.40625 16.4062 2.03125C17.0208 2.65625 17.4792 3.40625 17.7812 4.28125C18.0938 5.15625 18.2031 6.13542 18.1094 7.21875C18.0156 8.38542 17.7031 9.41667 17.1719 10.3125C16.651 11.1979 15.9844 11.9427 15.1719 12.5469C14.3594 13.1615 13.4375 13.6302 12.4062 13.9531C11.3854 14.2656 10.3281 14.4219 9.23438 14.4219L5.73438 14.4062ZM6.34375 10.8438L9.46875 10.8906C10.0208 10.8802 10.5417 10.7917 11.0312 10.625C11.5208 10.4479 11.9583 10.2031 12.3438 9.89062C12.7292 9.57812 13.0469 9.19792 13.2969 8.75C13.5573 8.30208 13.724 7.79688 13.7969 7.23438C13.8594 6.74479 13.8542 6.28646 13.7812 5.85938C13.7083 5.42188 13.5625 5.03646 13.3438 4.70312C13.1146 4.38021 12.8125 4.11979 12.4375 3.92188C12.0625 3.71354 11.6146 3.59896 11.0938 3.57812L7.60938 3.5625L6.34375 10.8438Z" fill="#BBC1EF"/>
</svg>
